<mxfile host="Electron" agent="Mozilla/5.0 (X11; Linux x86_64) AppleWebKit/537.36 (KHTML, like Gecko) draw.io/26.0.3 Chrome/130.0.6723.137 Electron/33.2.1 Safari/537.36" version="26.0.3">
  <diagram name="Strona-1" id="k09T29vKqUEPS2Cp9CFr">
    <mxGraphModel dx="2206" dy="1291" grid="0" gridSize="10" guides="1" tooltips="1" connect="1" arrows="1" fold="1" page="1" pageScale="1" pageWidth="2336" pageHeight="1654" math="0" shadow="0">
      <root>
        <mxCell id="0" />
        <mxCell id="1" parent="0" />
        <mxCell id="5sZKzDiridRZIgTESPBQ-1" value="&lt;blockquote style=&quot;margin: 0 0 0 40px; border: none; padding: 0px;&quot;&gt;&lt;div&gt;&lt;div&gt;&lt;b&gt;Example Runtime Error 1&amp;nbsp;&lt;/b&gt;&lt;/div&gt;&lt;/div&gt;&lt;div&gt;&lt;div&gt;Traceback (most recent call last):&lt;/div&gt;&lt;/div&gt;&lt;div&gt;&lt;div&gt;&amp;nbsp; File &quot;New_val_Adapt_Task2_outputs_python_no_final_rule/Llama-8/2/python_code/2_output_python.py&quot;, line 18, in &amp;lt;module&amp;gt;&lt;/div&gt;&lt;/div&gt;&lt;div&gt;&lt;div&gt;&amp;nbsp; &amp;nbsp; print(r3(4270.1, 2362.5, 2.1, 0.3, 1.0, 0.7))&lt;/div&gt;&lt;/div&gt;&lt;div&gt;&lt;div&gt;&amp;nbsp; File &quot;New_val_Adapt_Task2_outputs_python_no_final_rule/Llama-8/2/python_code/2_output_python.py&quot;, line 16, in r3&lt;/div&gt;&lt;/div&gt;&lt;div&gt;&lt;div&gt;&amp;nbsp; &amp;nbsp; return not(r1(arg1, arg2) and r2(arg3, arg4, arg5, arg6)), r1(arg1, arg2), r2(arg3, arg4, arg5, arg6)&lt;/div&gt;&lt;/div&gt;&lt;div&gt;&lt;div&gt;&lt;b&gt;TypeError: r2() takes 3 positional arguments but 4 were given&lt;/b&gt;&lt;/div&gt;&lt;/div&gt;&lt;/blockquote&gt;" style="text;html=1;align=left;verticalAlign=top;rounded=1;strokeColor=#000000;whiteSpace=wrap;fillColor=#e6d0de;fontSize=24;gradientColor=#d5739d;" vertex="1" parent="1">
          <mxGeometry x="90" y="246" width="727" height="512" as="geometry" />
        </mxCell>
        <mxCell id="5sZKzDiridRZIgTESPBQ-2" value="&lt;blockquote style=&quot;margin: 0 0 0 40px; border: none; padding: 0px;&quot;&gt;&lt;div&gt;&lt;div&gt;&lt;b&gt;Example Runtime Error 2&lt;/b&gt;&lt;/div&gt;&lt;/div&gt;&lt;div&gt;&lt;div&gt;Traceback (most recent call last):&lt;/div&gt;&lt;/div&gt;&lt;div&gt;&lt;div&gt;&amp;nbsp; File &quot;New_val_Adapt_Task2_outputs_python_no_final_rule/Llama-8/2/python_code/23_output_python.py&quot;, line 18, in &amp;lt;module&amp;gt;&lt;/div&gt;&lt;/div&gt;&lt;div&gt;&lt;div&gt;&amp;nbsp; &amp;nbsp; print(r3(110, 171, 2.1, 0.3, 1.0, 0.7))&lt;/div&gt;&lt;/div&gt;&lt;div&gt;&lt;div&gt;&amp;nbsp; File &quot;New_val_Adapt_Task2_outputs_python_no_final_rule/Llama-8/2/python_code/23_output_python.py&quot;, line 16, in r3&lt;/div&gt;&lt;/div&gt;&lt;div&gt;&lt;div&gt;&amp;nbsp; &amp;nbsp; return not(r1(arg1, arg2) and r2(arg3, arg4, arg5, arg6)), r1(arg1, arg2), r2(arg3, arg4, arg5, arg6)&lt;/div&gt;&lt;/div&gt;&lt;div&gt;&lt;div&gt;&amp;nbsp; File &quot;New_val_Adapt_Task2_outputs_python_no_final_rule/Llama-8/2/python_code/23_output_python.py&quot;, line 3, in r1&lt;/div&gt;&lt;/div&gt;&lt;div&gt;&lt;div&gt;&amp;nbsp; &amp;nbsp; if ptos &amp;gt; total_stops:&lt;/div&gt;&lt;/div&gt;&lt;div&gt;&lt;div&gt;&lt;b&gt;NameError: name &#39;ptos&#39; is not defined. Did you mean: &#39;pto&#39;?&lt;/b&gt;&lt;/div&gt;&lt;/div&gt;&lt;/blockquote&gt;&lt;div&gt;&lt;div&gt;&lt;br&gt;&lt;/div&gt;&lt;/div&gt;" style="text;html=1;align=left;verticalAlign=top;rounded=1;strokeColor=#000000;whiteSpace=wrap;fillColor=#d5e8d4;fontSize=24;gradientColor=#97d077;" vertex="1" parent="1">
          <mxGeometry x="817" y="246" width="721" height="512" as="geometry" />
        </mxCell>
        <mxCell id="5sZKzDiridRZIgTESPBQ-3" value="&lt;blockquote style=&quot;margin: 0 0 0 40px; border: none; padding: 0px;&quot;&gt;&lt;div&gt;&lt;div&gt;&lt;div&gt;&lt;b&gt;Example Runtime Error 3&lt;/b&gt;&lt;/div&gt;&lt;/div&gt;&lt;/div&gt;&lt;div&gt;&lt;div&gt;&lt;div&gt;Traceback (most recent call last):&lt;/div&gt;&lt;/div&gt;&lt;/div&gt;&lt;div&gt;&lt;div&gt;&lt;div&gt;&amp;nbsp; File &quot;New_val_Adapt_Task2_outputs_python_no_final_rule/Llama-8/3/python_code/72_output_python.py&quot;, line 25, in &amp;lt;module&amp;gt;&lt;/div&gt;&lt;/div&gt;&lt;/div&gt;&lt;div&gt;&lt;div&gt;&lt;div&gt;&amp;nbsp; &amp;nbsp; print(r4(26.7, 8.01, 110, 171, 3241.2, 3010.4))&lt;/div&gt;&lt;/div&gt;&lt;/div&gt;&lt;div&gt;&lt;div&gt;&lt;div&gt;&amp;nbsp; File &quot;New_val_Adapt_Task2_outputs_python_no_final_rule/Llama-8/3/python_code/72_output_python.py&quot;, line 23, in r4&lt;/div&gt;&lt;/div&gt;&lt;/div&gt;&lt;div&gt;&lt;div&gt;&lt;div&gt;&amp;nbsp; &amp;nbsp; return not(r1(arg1, arg2) and r2(arg3, arg4) and r3(arg5, arg6)), r1(arg1, arg2), r2(arg3, arg4), r3(arg5, arg6)&lt;/div&gt;&lt;/div&gt;&lt;/div&gt;&lt;div&gt;&lt;div&gt;&lt;div&gt;&lt;b&gt;TypeError: r1() takes 1 positional argument but 2 were given&lt;/b&gt;&lt;/div&gt;&lt;/div&gt;&lt;/div&gt;&lt;/blockquote&gt;&lt;div&gt;&lt;div&gt;&lt;br&gt;&lt;/div&gt;&lt;/div&gt;" style="text;html=1;align=left;verticalAlign=top;rounded=1;strokeColor=#000000;whiteSpace=wrap;fillColor=#f8cecc;fontSize=24;gradientColor=#ea6b66;" vertex="1" parent="1">
          <mxGeometry x="1540" y="246" width="716" height="511" as="geometry" />
        </mxCell>
      </root>
    </mxGraphModel>
  </diagram>
</mxfile>
